HIERARCHY
ROOT Hips
{
	OFFSET -3.958830 18.904000 13.208200
	CHANNELS 6 Xposition Yposition Zposition Zrotation Yrotation Xrotation 
	JOINT LHipJoint
	{
		OFFSET 0.000000 0.000000 0.000000
		CHANNELS 3 Zrotation Yrotation Xrotation
		JOINT LeftUpLeg
		{
			OFFSET 1.800000 -1.400000 0.085000
			CHANNELS 3 Zrotation Yrotation Xrotation
			JOINT LeftLeg
			{
				OFFSET 2.215000 -6.000000 0.000000
				CHANNELS 3 Zrotation Yrotation Xrotation
				JOINT LeftFoot
				{
					OFFSET 2.500000 -6.900000 0.000000
					CHANNELS 3 Zrotation Yrotation Xrotation
					JOINT LeftToeBase
					{
						OFFSET 0.200000 -0.500000 1.950000
						CHANNELS 3 Zrotation Yrotation Xrotation
						End Site
						{
							OFFSET 0.000000 0.000000 0.000000
						}
					}
				}
			}
		}
	}
	JOINT RHipJoint
	{
		OFFSET 0.000000 0.000000 0.000000
		CHANNELS 3 Zrotation Yrotation Xrotation
		JOINT RightUpLeg
		{
			OFFSET -1.800000 -1.400000 0.085000
			CHANNELS 3 Zrotation Yrotation Xrotation
			JOINT RightLeg
			{
				OFFSET -2.215000 -6.000000 0.000000
				CHANNELS 3 Zrotation Yrotation Xrotation
				JOINT RightFoot
				{
					OFFSET -2.500000 -6.900000 0.000000
					CHANNELS 3 Zrotation Yrotation Xrotation
					JOINT RightToeBase
					{
						OFFSET -0.200000 -0.500000 1.950000
						CHANNELS 3 Zrotation Yrotation Xrotation
						End Site
						{
							OFFSET 0.000000 0.000000 0.000000
						}
					}
				}
			}
		}
	}
	JOINT LowerBack
	{
		OFFSET 0.000000 0.000000 0.000000
		CHANNELS 3 Zrotation Yrotation Xrotation
		JOINT Spine
		{
			OFFSET -0.087000 1.940000 -0.288900
			CHANNELS 3 Zrotation Yrotation Xrotation
			JOINT Spine1
			{
				OFFSET 0.000000 1.950000 0.060000
				CHANNELS 3 Zrotation Yrotation Xrotation
				JOINT Neck
				{
					OFFSET 0.000000 0.000000 0.000000
					CHANNELS 3 Zrotation Yrotation Xrotation
					JOINT Neck1
					{
						OFFSET 0.000000 1.600000 0.340000
						CHANNELS 3 Zrotation Yrotation Xrotation
						JOINT Head
						{
							OFFSET 0.000000 1.667000 -0.240000
							CHANNELS 3 Zrotation Yrotation Xrotation
							End Site
							{
								OFFSET 0.000000 0.000000 0.000000
							}
						}
					}
				}
				JOINT LeftShoulder
				{
					OFFSET 0.000000 0.000000 0.000000
					CHANNELS 3 Zrotation Yrotation Xrotation
					JOINT LeftArm
					{
						OFFSET 2.700000 1.550000 -0.730000
						CHANNELS 3 Zrotation Yrotation Xrotation
						JOINT LeftForeArm
						{
							OFFSET 5.450000 0.000000 0.000000
							CHANNELS 3 Zrotation Yrotation Xrotation
							JOINT LeftHand
							{
								OFFSET 3.450000 0.000000 0.000000
								CHANNELS 3 Zrotation Yrotation Xrotation
								JOINT LeftHandIndex1
								{
									OFFSET 0.750000 0.000000 0.000000
									CHANNELS 3 Zrotation Yrotation Xrotation
									End Site
									{
										OFFSET 0.000000 0.000000 0.000000
									}
								}
							}
						}
					}
				}
				JOINT RightShoulder
				{
					OFFSET 0.000000 0.000000 0.000000
					CHANNELS 3 Zrotation Yrotation Xrotation
					JOINT RightArm
					{
						OFFSET -2.700000 1.550000 -0.730000
						CHANNELS 3 Zrotation Yrotation Xrotation
						JOINT RightForeArm
						{
							OFFSET -5.450000 0.000000 0.000000
							CHANNELS 3 Zrotation Yrotation Xrotation
							JOINT RightHand
							{
								OFFSET -3.450000 0.000000 0.000000
								CHANNELS 3 Zrotation Yrotation Xrotation
								JOINT RightHandIndex1
								{
									OFFSET -0.750000 0.000000 0.000000
									CHANNELS 3 Zrotation Yrotation Xrotation
									End Site
									{
										OFFSET 0.000000 0.000000 0.000000
									}
								}
							}
						}
					}
				}
			}
		}
	}
}
MOTION
Frames: 4
Frame Time: 0.016667
-0.896410 9.390850 -3.763710 141.783386 -33.702109 24.639197 -6.810504 19.801322 9.451246 4.369621 23.052373 59.240303 -17.353562 -52.995975 -124.414518 9.107901 4.373818 3.420005 -17.878000 -15.499750 -13.425590 22.305183 -10.635401 13.374289 -15.657840 3.121479 38.370966 52.368402 83.894391 -86.263047 2.459905 -3.431878 -2.072463 -10.657300 11.547000 4.224610 -16.556526 -18.555038 -27.935820 75.850819 26.056694 -14.373901 36.827505 60.247498 77.638170 -59.311558 7.246469 -20.909762 93.708427 50.686325 172.324040 15.293460 24.702640 -65.128520 -68.614920 31.143899 51.520166 62.116160 -65.339495 -86.299555 124.510439 19.139333 178.326724 -24.026678 7.296693 -6.488850 4.534720 -0.175830 -3.082220 166.601142 11.938571 38.400602 -74.147709 -54.049226 49.090300 147.941777 39.206140 160.036609 7.750024 -10.402800 1.060080 0.122790 9.501140 9.276350 
-0.824360 9.268520 -3.720200 139.635737 -34.555475 28.799506 -9.867290 18.263860 6.912116 2.514986 23.580633 58.556786 -7.813560 -47.109088 -132.408864 8.517046 4.517650 3.396306 -17.851770 -15.525450 -13.476740 21.081835 -8.894533 11.789203 -14.737018 2.668831 37.897594 63.561572 84.579836 -75.710126 2.470672 -4.080782 -2.122737 -10.417800 11.708440 3.860060 -10.064407 -25.128492 -19.040306 78.922537 9.976370 -21.783532 18.707980 76.637484 53.959543 -51.164444 34.556343 -29.374522 116.282440 26.751031 -142.280144 -11.589420 31.818350 -77.432520 -29.185449 17.572829 -67.754900 -66.428461 18.622117 168.537526 -130.345899 9.060825 -167.281368 -11.939630 9.609916 -6.203550 4.655900 -0.394950 -3.081930 179.864973 -18.096748 21.490862 -85.922484 -43.436921 43.933221 137.315659 29.057023 153.464557 10.881453 -8.843064 0.628020 0.488350 9.656690 9.065250 
-0.770990 9.164820 -3.475480 136.609546 -37.414781 27.690738 -9.409329 20.213680 8.823422 -3.368426 21.460453 58.980153 3.465048 -34.592632 -140.344144 7.865473 3.991823 3.350279 -17.655110 -15.375560 -13.279110 20.248408 -9.632033 12.156366 -17.743901 1.853876 41.829671 51.471919 86.028014 -88.843698 2.719776 -2.844723 -1.287960 -10.240410 11.465060 3.468330 -9.616004 -23.725663 -23.380059 71.638557 17.711454 -10.100659 13.967200 70.024073 21.880260 -42.964396 25.018893 -3.211440 119.855886 15.215122 -116.038407 -31.840190 33.475790 -80.594810 -40.786528 29.759899 -21.829924 -62.456495 -13.748380 177.231344 -130.702225 5.158592 -157.498604 -10.164005 9.671022 -5.852840 4.514360 -0.483780 -3.154190 166.783730 5.180767 -30.051418 -87.450344 -10.462863 39.543081 125.278940 10.437304 140.684220 14.134827 -8.088604 0.343600 0.682960 9.656530 8.764150 
-1.108590 9.080570 -3.294320 140.629326 -38.941438 28.589079 -8.815278 19.599355 10.123768 -8.791262 18.635495 56.433168 7.686802 -30.717696 -140.927759 7.981127 3.544780 3.266301 -17.435770 -15.064700 -12.866600 20.319632 -11.347825 11.606561 -22.874626 0.113771 42.909994 36.152890 85.754803 -106.332707 2.826740 -0.579086 -0.561348 -10.285560 10.984600 3.652720 -9.934188 -23.802343 -25.666758 65.567046 21.956242 -6.308208 171.653799 87.035098 -170.641991 -29.867738 12.492273 11.831003 116.739027 40.787575 -124.382300 -30.091210 31.310440 -69.756290 -39.449875 31.962804 41.888488 -10.850443 -77.991635 68.295619 -158.930605 48.256329 -146.385745 -13.237172 5.835035 -5.838680 4.283730 -0.190170 -3.234380 153.686796 40.073702 -53.878049 -77.602271 13.655174 50.014196 121.037305 2.156890 129.910691 11.809005 -12.884867 0.614810 0.355790 9.430080 8.653670 
